<mxfile host="app.diagrams.net" modified="2023-10-22T12:59:09.018Z" agent="Mozilla/5.0 (Macintosh; Intel Mac OS X 10_15_7) AppleWebKit/537.36 (KHTML, like Gecko) Chrome/117.0.0.0 Safari/537.36" etag="hwQRcgSfRtVA0hBwFvia" version="22.0.6" type="github">
  <diagram name="第 1 页" id="F19jYF7iY7Yb21lojx2F">
    <mxGraphModel dx="1363" dy="4217" grid="1" gridSize="10" guides="1" tooltips="1" connect="1" arrows="1" fold="1" page="1" pageScale="1" pageWidth="2339" pageHeight="3300" math="0" shadow="0">
      <root>
        <mxCell id="0" />
        <mxCell id="1" parent="0" />
        <mxCell id="IReOFWMfToj0j515MoHR-6" style="edgeStyle=orthogonalEdgeStyle;rounded=0;orthogonalLoop=1;jettySize=auto;html=1;exitX=0.5;exitY=1;exitDx=0;exitDy=0;" edge="1" parent="1">
          <mxGeometry relative="1" as="geometry">
            <mxPoint x="666" y="-2055" as="targetPoint" />
            <mxPoint x="666" y="-2105" as="sourcePoint" />
          </mxGeometry>
        </mxCell>
        <mxCell id="IReOFWMfToj0j515MoHR-3" value="&lt;div style=&quot;color: rgb(212, 212, 212); background-color: rgb(30, 30, 30); font-family: Menlo, Monaco, &amp;quot;Courier New&amp;quot;, monospace; line-height: 18px;&quot;&gt;&lt;div&gt;int &lt;span style=&quot;color: #4ec9b0;&quot;&gt;GPTAttentionPlugin&lt;/span&gt;::&lt;span style=&quot;color: #dcdcaa;&quot;&gt;enqueue&lt;/span&gt;(&lt;span style=&quot;color: #569cd6;&quot;&gt;const&lt;/span&gt; &lt;span style=&quot;color: #4ec9b0;&quot;&gt;nvinfer1&lt;/span&gt;::&lt;span style=&quot;color: #4ec9b0;&quot;&gt;PluginTensorDesc&lt;/span&gt;&lt;span style=&quot;color: #569cd6;&quot;&gt;*&lt;/span&gt; &lt;span style=&quot;color: #9cdcfe;&quot;&gt;inputDesc&lt;/span&gt;,&lt;/div&gt;&lt;div&gt;    &lt;span style=&quot;color: #569cd6;&quot;&gt;const&lt;/span&gt; &lt;span style=&quot;color: #4ec9b0;&quot;&gt;nvinfer1&lt;/span&gt;::&lt;span style=&quot;color: #4ec9b0;&quot;&gt;PluginTensorDesc&lt;/span&gt;&lt;span style=&quot;color: #569cd6;&quot;&gt;*&lt;/span&gt; &lt;span style=&quot;color: #9cdcfe;&quot;&gt;outputDesc&lt;/span&gt;, &lt;span style=&quot;color: #569cd6;&quot;&gt;const&lt;/span&gt; &lt;span style=&quot;color: #569cd6;&quot;&gt;void*&lt;/span&gt; &lt;span style=&quot;color: #569cd6;&quot;&gt;const*&lt;/span&gt; &lt;span style=&quot;color: #9cdcfe;&quot;&gt;inputs&lt;/span&gt;, &lt;span style=&quot;color: #569cd6;&quot;&gt;void*&lt;/span&gt; &lt;span style=&quot;color: #569cd6;&quot;&gt;const*&lt;/span&gt; &lt;span style=&quot;color: #9cdcfe;&quot;&gt;outputs&lt;/span&gt;, &lt;span style=&quot;color: #569cd6;&quot;&gt;void*&lt;/span&gt; &lt;span style=&quot;color: #9cdcfe;&quot;&gt;workspace&lt;/span&gt;,&lt;/div&gt;&lt;div&gt;    &lt;span style=&quot;color: #4ec9b0;&quot;&gt;cudaStream_t&lt;/span&gt; &lt;span style=&quot;color: #9cdcfe;&quot;&gt;stream&lt;/span&gt;) &lt;span style=&quot;color: #569cd6;&quot;&gt;noexcept&lt;/span&gt;&lt;/div&gt;&lt;/div&gt;" style="whiteSpace=wrap;html=1;" vertex="1" parent="1">
          <mxGeometry x="381" y="-2173" width="570" height="60" as="geometry" />
        </mxCell>
        <mxCell id="IReOFWMfToj0j515MoHR-11" style="edgeStyle=orthogonalEdgeStyle;rounded=0;orthogonalLoop=1;jettySize=auto;html=1;" edge="1" parent="1" source="IReOFWMfToj0j515MoHR-4">
          <mxGeometry relative="1" as="geometry">
            <mxPoint x="666" y="-1893" as="targetPoint" />
          </mxGeometry>
        </mxCell>
        <mxCell id="IReOFWMfToj0j515MoHR-4" value="&lt;div style=&quot;color: rgb(212, 212, 212); background-color: rgb(30, 30, 30); font-family: Menlo, Monaco, &amp;quot;Courier New&amp;quot;, monospace; line-height: 18px;&quot;&gt;&lt;div style=&quot;line-height: 18px;&quot;&gt;&lt;div&gt;&lt;div style=&quot;line-height: 18px;&quot;&gt;template &amp;lt;&lt;span style=&quot;color: #569cd6;&quot;&gt;typename&lt;/span&gt; &lt;span style=&quot;color: #4ec9b0;&quot;&gt;T&lt;/span&gt;&amp;gt;&lt;/div&gt;&lt;/div&gt;&lt;div&gt;int &lt;span style=&quot;color: #4ec9b0;&quot;&gt;GPTAttentionPlugin&lt;/span&gt;::&lt;span style=&quot;color: #dcdcaa;&quot;&gt;enqueueDispatchKVCacheType&lt;/span&gt;(&lt;span style=&quot;color: #569cd6;&quot;&gt;const&lt;/span&gt; &lt;span style=&quot;color: #4ec9b0;&quot;&gt;nvinfer1&lt;/span&gt;::&lt;span style=&quot;color: #4ec9b0;&quot;&gt;PluginTensorDesc&lt;/span&gt;&lt;span style=&quot;color: #569cd6;&quot;&gt;*&lt;/span&gt; &lt;span style=&quot;color: #9cdcfe;&quot;&gt;inputDesc&lt;/span&gt;,&lt;/div&gt;&lt;div&gt;    &lt;span style=&quot;color: #569cd6;&quot;&gt;const&lt;/span&gt; &lt;span style=&quot;color: #4ec9b0;&quot;&gt;nvinfer1&lt;/span&gt;::&lt;span style=&quot;color: #4ec9b0;&quot;&gt;PluginTensorDesc&lt;/span&gt;&lt;span style=&quot;color: #569cd6;&quot;&gt;*&lt;/span&gt; &lt;span style=&quot;color: #9cdcfe;&quot;&gt;outputDesc&lt;/span&gt;, &lt;span style=&quot;color: #569cd6;&quot;&gt;const&lt;/span&gt; &lt;span style=&quot;color: #569cd6;&quot;&gt;void*&lt;/span&gt; &lt;span style=&quot;color: #569cd6;&quot;&gt;const*&lt;/span&gt; &lt;span style=&quot;color: #9cdcfe;&quot;&gt;inputs&lt;/span&gt;, &lt;span style=&quot;color: #569cd6;&quot;&gt;void*&lt;/span&gt; &lt;span style=&quot;color: #569cd6;&quot;&gt;const*&lt;/span&gt; &lt;span style=&quot;color: #9cdcfe;&quot;&gt;outputs&lt;/span&gt;, &lt;span style=&quot;color: #569cd6;&quot;&gt;void*&lt;/span&gt; &lt;span style=&quot;color: #9cdcfe;&quot;&gt;workspace&lt;/span&gt;,&lt;/div&gt;&lt;div&gt;    &lt;span style=&quot;color: #4ec9b0;&quot;&gt;cudaStream_t&lt;/span&gt; &lt;span style=&quot;color: #9cdcfe;&quot;&gt;stream&lt;/span&gt;)&lt;/div&gt;&lt;/div&gt;&lt;/div&gt;" style="whiteSpace=wrap;html=1;" vertex="1" parent="1">
          <mxGeometry x="381" y="-2030" width="570" height="60" as="geometry" />
        </mxCell>
        <mxCell id="IReOFWMfToj0j515MoHR-7" value="数据类型不同：half,float , bf16" style="rounded=0;whiteSpace=wrap;html=1;" vertex="1" parent="1">
          <mxGeometry x="691" y="-2103" width="130" height="40" as="geometry" />
        </mxCell>
        <mxCell id="IReOFWMfToj0j515MoHR-13" style="edgeStyle=orthogonalEdgeStyle;rounded=0;orthogonalLoop=1;jettySize=auto;html=1;exitX=1;exitY=0.5;exitDx=0;exitDy=0;entryX=0;entryY=0.5;entryDx=0;entryDy=0;" edge="1" parent="1" source="IReOFWMfToj0j515MoHR-8" target="IReOFWMfToj0j515MoHR-12">
          <mxGeometry relative="1" as="geometry" />
        </mxCell>
        <mxCell id="IReOFWMfToj0j515MoHR-16" style="edgeStyle=orthogonalEdgeStyle;rounded=0;orthogonalLoop=1;jettySize=auto;html=1;" edge="1" parent="1" source="IReOFWMfToj0j515MoHR-8">
          <mxGeometry relative="1" as="geometry">
            <mxPoint x="666" y="-1733" as="targetPoint" />
          </mxGeometry>
        </mxCell>
        <mxCell id="IReOFWMfToj0j515MoHR-8" value="&lt;div style=&quot;color: rgb(212, 212, 212); background-color: rgb(30, 30, 30); font-family: Menlo, Monaco, &amp;quot;Courier New&amp;quot;, monospace; line-height: 18px;&quot;&gt;&lt;div style=&quot;line-height: 18px;&quot;&gt;&lt;div&gt;template &amp;lt;&lt;span style=&quot;color: #569cd6;&quot;&gt;typename&lt;/span&gt; &lt;span style=&quot;color: #4ec9b0;&quot;&gt;T&lt;/span&gt;, &lt;span style=&quot;color: #569cd6;&quot;&gt;typename&lt;/span&gt; &lt;span style=&quot;color: #4ec9b0;&quot;&gt;KVCacheBuffer&lt;/span&gt;&amp;gt;&lt;/div&gt;&lt;div&gt;&lt;span style=&quot;color: #569cd6;&quot;&gt;int&lt;/span&gt; &lt;span style=&quot;color: #4ec9b0;&quot;&gt;GPTAttentionPlugin&lt;/span&gt;::&lt;span style=&quot;color: #dcdcaa;&quot;&gt;enqueueImpl&lt;/span&gt;(&lt;span style=&quot;color: #569cd6;&quot;&gt;const&lt;/span&gt; &lt;span style=&quot;color: #4ec9b0;&quot;&gt;nvinfer1&lt;/span&gt;::&lt;span style=&quot;color: #4ec9b0;&quot;&gt;PluginTensorDesc&lt;/span&gt;&lt;span style=&quot;color: #569cd6;&quot;&gt;*&lt;/span&gt; &lt;span style=&quot;color: #9cdcfe;&quot;&gt;inputDesc&lt;/span&gt;,&lt;/div&gt;&lt;div&gt;    &lt;span style=&quot;color: #569cd6;&quot;&gt;const&lt;/span&gt; &lt;span style=&quot;color: #4ec9b0;&quot;&gt;nvinfer1&lt;/span&gt;::&lt;span style=&quot;color: #4ec9b0;&quot;&gt;PluginTensorDesc&lt;/span&gt;&lt;span style=&quot;color: #569cd6;&quot;&gt;*&lt;/span&gt; &lt;span style=&quot;color: #9cdcfe;&quot;&gt;outputDesc&lt;/span&gt;, &lt;span style=&quot;color: #569cd6;&quot;&gt;const&lt;/span&gt; &lt;span style=&quot;color: #569cd6;&quot;&gt;void*&lt;/span&gt; &lt;span style=&quot;color: #569cd6;&quot;&gt;const*&lt;/span&gt; &lt;span style=&quot;color: #9cdcfe;&quot;&gt;inputs&lt;/span&gt;, &lt;span style=&quot;color: #569cd6;&quot;&gt;void*&lt;/span&gt; &lt;span style=&quot;color: #569cd6;&quot;&gt;const*&lt;/span&gt; &lt;span style=&quot;color: #9cdcfe;&quot;&gt;outputs&lt;/span&gt;, &lt;span style=&quot;color: #569cd6;&quot;&gt;void*&lt;/span&gt; &lt;span style=&quot;color: #9cdcfe;&quot;&gt;workspace&lt;/span&gt;,&lt;/div&gt;&lt;div&gt;    &lt;span style=&quot;color: #4ec9b0;&quot;&gt;cudaStream_t&lt;/span&gt; &lt;span style=&quot;color: #9cdcfe;&quot;&gt;stream&lt;/span&gt;)&lt;/div&gt;&lt;/div&gt;&lt;/div&gt;" style="whiteSpace=wrap;html=1;" vertex="1" parent="1">
          <mxGeometry x="381" y="-1867" width="570" height="60" as="geometry" />
        </mxCell>
        <mxCell id="IReOFWMfToj0j515MoHR-10" value="kv cache类型不同：paged ,continuous" style="rounded=0;whiteSpace=wrap;html=1;" vertex="1" parent="1">
          <mxGeometry x="695" y="-1933" width="130" height="40" as="geometry" />
        </mxCell>
        <mxCell id="IReOFWMfToj0j515MoHR-12" value="将请求中 context seq和generate seq分离；实际计算时，先算context部分，然后再算generate部分。" style="whiteSpace=wrap;html=1;" vertex="1" parent="1">
          <mxGeometry x="1011" y="-1893" width="230" height="110" as="geometry" />
        </mxCell>
        <mxCell id="IReOFWMfToj0j515MoHR-18" style="edgeStyle=orthogonalEdgeStyle;rounded=0;orthogonalLoop=1;jettySize=auto;html=1;exitX=1;exitY=0.5;exitDx=0;exitDy=0;entryX=0;entryY=0.5;entryDx=0;entryDy=0;" edge="1" parent="1" source="IReOFWMfToj0j515MoHR-14" target="IReOFWMfToj0j515MoHR-17">
          <mxGeometry relative="1" as="geometry" />
        </mxCell>
        <mxCell id="IReOFWMfToj0j515MoHR-28" style="edgeStyle=orthogonalEdgeStyle;rounded=0;orthogonalLoop=1;jettySize=auto;html=1;entryX=0.5;entryY=0;entryDx=0;entryDy=0;" edge="1" parent="1" source="IReOFWMfToj0j515MoHR-14" target="IReOFWMfToj0j515MoHR-27">
          <mxGeometry relative="1" as="geometry" />
        </mxCell>
        <mxCell id="IReOFWMfToj0j515MoHR-29" style="edgeStyle=orthogonalEdgeStyle;rounded=0;orthogonalLoop=1;jettySize=auto;html=1;entryX=0.5;entryY=0;entryDx=0;entryDy=0;" edge="1" parent="1" source="IReOFWMfToj0j515MoHR-14" target="IReOFWMfToj0j515MoHR-24">
          <mxGeometry relative="1" as="geometry" />
        </mxCell>
        <mxCell id="IReOFWMfToj0j515MoHR-14" value="&lt;div style=&quot;color: rgb(212, 212, 212); background-color: rgb(30, 30, 30); font-family: Menlo, Monaco, &amp;quot;Courier New&amp;quot;, monospace; line-height: 18px;&quot;&gt;&lt;div style=&quot;line-height: 18px;&quot;&gt;&lt;div style=&quot;line-height: 18px;&quot;&gt;&lt;div&gt;template &amp;lt;&lt;span style=&quot;color: #569cd6;&quot;&gt;typename&lt;/span&gt; &lt;span style=&quot;color: #4ec9b0;&quot;&gt;T&lt;/span&gt;, &lt;span style=&quot;color: #569cd6;&quot;&gt;typename&lt;/span&gt; &lt;span style=&quot;color: #4ec9b0;&quot;&gt;KVCacheBuffer&lt;/span&gt;&amp;gt;&lt;/div&gt;&lt;div&gt;&lt;span style=&quot;color: #569cd6;&quot;&gt;int&lt;/span&gt; &lt;span style=&quot;color: #4ec9b0;&quot;&gt;GPTAttentionPlugin&lt;/span&gt;::&lt;span style=&quot;color: #dcdcaa;&quot;&gt;enqueueSome&lt;/span&gt;(&lt;span style=&quot;color: #569cd6;&quot;&gt;int32_t&lt;/span&gt; &lt;span style=&quot;color: #9cdcfe;&quot;&gt;seqIdxBeg&lt;/span&gt;, &lt;span style=&quot;color: #569cd6;&quot;&gt;int32_t&lt;/span&gt; &lt;span style=&quot;color: #9cdcfe;&quot;&gt;localNbSeq&lt;/span&gt;, &lt;span style=&quot;color: #569cd6;&quot;&gt;int32_t&lt;/span&gt; &lt;span style=&quot;color: #9cdcfe;&quot;&gt;tokenIdxBeg&lt;/span&gt;, &lt;span style=&quot;color: #569cd6;&quot;&gt;int32_t&lt;/span&gt; &lt;span style=&quot;color: #9cdcfe;&quot;&gt;localNbTokens&lt;/span&gt;,&lt;/div&gt;&lt;div&gt;    &lt;span style=&quot;color: #569cd6;&quot;&gt;const&lt;/span&gt; &lt;span style=&quot;color: #4ec9b0;&quot;&gt;nvinfer1&lt;/span&gt;::&lt;span style=&quot;color: #4ec9b0;&quot;&gt;PluginTensorDesc&lt;/span&gt;&lt;span style=&quot;color: #569cd6;&quot;&gt;*&lt;/span&gt; &lt;span style=&quot;color: #9cdcfe;&quot;&gt;inputDesc&lt;/span&gt;, &lt;span style=&quot;color: #569cd6;&quot;&gt;const&lt;/span&gt; &lt;span style=&quot;color: #4ec9b0;&quot;&gt;nvinfer1&lt;/span&gt;::&lt;span style=&quot;color: #4ec9b0;&quot;&gt;PluginTensorDesc&lt;/span&gt;&lt;span style=&quot;color: #569cd6;&quot;&gt;*&lt;/span&gt; &lt;span style=&quot;color: #9cdcfe;&quot;&gt;outputDesc&lt;/span&gt;,&lt;/div&gt;&lt;div&gt;    &lt;span style=&quot;color: #569cd6;&quot;&gt;const&lt;/span&gt; &lt;span style=&quot;color: #569cd6;&quot;&gt;void*&lt;/span&gt; &lt;span style=&quot;color: #569cd6;&quot;&gt;const*&lt;/span&gt; &lt;span style=&quot;color: #9cdcfe;&quot;&gt;inputs&lt;/span&gt;, &lt;span style=&quot;color: #569cd6;&quot;&gt;void*&lt;/span&gt; &lt;span style=&quot;color: #569cd6;&quot;&gt;const*&lt;/span&gt; &lt;span style=&quot;color: #9cdcfe;&quot;&gt;outputs&lt;/span&gt;, &lt;span style=&quot;color: #569cd6;&quot;&gt;void*&lt;/span&gt; &lt;span style=&quot;color: #9cdcfe;&quot;&gt;workspace&lt;/span&gt;, &lt;span style=&quot;color: #4ec9b0;&quot;&gt;cudaStream_t&lt;/span&gt; &lt;span style=&quot;color: #9cdcfe;&quot;&gt;stream&lt;/span&gt;)&lt;/div&gt;&lt;/div&gt;&lt;/div&gt;&lt;/div&gt;" style="whiteSpace=wrap;html=1;" vertex="1" parent="1">
          <mxGeometry x="381" y="-1693" width="570" height="60" as="geometry" />
        </mxCell>
        <mxCell id="IReOFWMfToj0j515MoHR-20" style="edgeStyle=orthogonalEdgeStyle;rounded=0;orthogonalLoop=1;jettySize=auto;html=1;exitX=1;exitY=0.5;exitDx=0;exitDy=0;entryX=0;entryY=0.25;entryDx=0;entryDy=0;" edge="1" parent="1" source="IReOFWMfToj0j515MoHR-17" target="IReOFWMfToj0j515MoHR-19">
          <mxGeometry relative="1" as="geometry" />
        </mxCell>
        <mxCell id="IReOFWMfToj0j515MoHR-22" style="edgeStyle=orthogonalEdgeStyle;rounded=0;orthogonalLoop=1;jettySize=auto;html=1;exitX=1;exitY=0.5;exitDx=0;exitDy=0;entryX=0;entryY=0.5;entryDx=0;entryDy=0;" edge="1" parent="1" source="IReOFWMfToj0j515MoHR-17" target="IReOFWMfToj0j515MoHR-21">
          <mxGeometry relative="1" as="geometry" />
        </mxCell>
        <mxCell id="IReOFWMfToj0j515MoHR-17" value="获取和配置context/generate阶段的运行参数：其中context和generate阶段单独需要的参数为：&lt;br&gt;context:&lt;b&gt;max_context_len,localNbTokens&lt;/b&gt;（后续mask token，qk_attention恢复padding需要）&lt;br&gt;&lt;br&gt;generate:sequence_length,past_kv_len,&lt;br&gt;&lt;br&gt;&lt;b&gt;beamWidth,num_requests,cache_indir&lt;/b&gt;&lt;span style=&quot;background-color: initial;&quot;&gt;（用于beam search等）；&lt;/span&gt;" style="whiteSpace=wrap;html=1;align=left;" vertex="1" parent="1">
          <mxGeometry x="1011" y="-1764" width="230" height="202" as="geometry" />
        </mxCell>
        <mxCell id="IReOFWMfToj0j515MoHR-21" value="&lt;div style=&quot;color: rgb(212, 212, 212); background-color: rgb(30, 30, 30); font-family: Menlo, Monaco, &amp;quot;Courier New&amp;quot;, monospace; line-height: 18px;&quot;&gt;&lt;div style=&quot;line-height: 18px;&quot;&gt;&lt;div&gt;template &amp;lt;&lt;span style=&quot;color: #569cd6;&quot;&gt;typename&lt;/span&gt; &lt;span style=&quot;color: #4ec9b0;&quot;&gt;T&lt;/span&gt;, &lt;span style=&quot;color: #569cd6;&quot;&gt;typename&lt;/span&gt; &lt;span style=&quot;color: #4ec9b0;&quot;&gt;KVCacheBuffer&lt;/span&gt;&amp;gt;&lt;/div&gt;&lt;div&gt;    &lt;span style=&quot;color: #569cd6;&quot;&gt;struct&lt;/span&gt; &lt;span style=&quot;color: #4ec9b0;&quot;&gt;EnqueueGenerationParams&lt;/span&gt;&lt;/div&gt;&lt;div&gt;    {&lt;/div&gt;&lt;div&gt;        &lt;span style=&quot;color: #4ec9b0;&quot;&gt;T&lt;/span&gt; &lt;span style=&quot;color: #569cd6;&quot;&gt;const&lt;/span&gt;* &lt;span style=&quot;color: #9cdcfe;&quot;&gt;attention_input&lt;/span&gt;;&lt;/div&gt;&lt;div&gt;        &lt;span style=&quot;color: #4ec9b0;&quot;&gt;T&lt;/span&gt; &lt;span style=&quot;color: #569cd6;&quot;&gt;const&lt;/span&gt;* &lt;span style=&quot;color: #9cdcfe;&quot;&gt;qkv_bias&lt;/span&gt;;&lt;/div&gt;&lt;div&gt;        &lt;span style=&quot;color: #4ec9b0;&quot;&gt;int32_t&lt;/span&gt; &lt;span style=&quot;color: #569cd6;&quot;&gt;const&lt;/span&gt;* &lt;span style=&quot;color: #9cdcfe;&quot;&gt;sequence_lengths&lt;/span&gt;;&lt;/div&gt;&lt;div&gt;        &lt;span style=&quot;color: #4ec9b0;&quot;&gt;int32_t&lt;/span&gt; &lt;span style=&quot;color: #9cdcfe;&quot;&gt;past_kv_length&lt;/span&gt;;&lt;/div&gt;&lt;div&gt;        &lt;span style=&quot;color: #4ec9b0;&quot;&gt;int32_t&lt;/span&gt; &lt;span style=&quot;color: #9cdcfe;&quot;&gt;beam_width&lt;/span&gt;;&lt;/div&gt;&lt;div&gt;        &lt;span style=&quot;color: #4ec9b0;&quot;&gt;int32_t&lt;/span&gt; &lt;span style=&quot;color: #569cd6;&quot;&gt;const&lt;/span&gt;* &lt;span style=&quot;color: #9cdcfe;&quot;&gt;context_lengths&lt;/span&gt;;&lt;/div&gt;&lt;div&gt;        &lt;span style=&quot;color: #569cd6;&quot;&gt;float&lt;/span&gt; &lt;span style=&quot;color: #569cd6;&quot;&gt;const&lt;/span&gt;* &lt;span style=&quot;color: #9cdcfe;&quot;&gt;kv_scale_orig_quant&lt;/span&gt;;&lt;/div&gt;&lt;div&gt;        &lt;span style=&quot;color: #569cd6;&quot;&gt;float&lt;/span&gt; &lt;span style=&quot;color: #569cd6;&quot;&gt;const&lt;/span&gt;* &lt;span style=&quot;color: #9cdcfe;&quot;&gt;kv_scale_quant_orig&lt;/span&gt;;&lt;/div&gt;&lt;div&gt;        &lt;span style=&quot;color: #4ec9b0;&quot;&gt;T&lt;/span&gt; &lt;span style=&quot;color: #569cd6;&quot;&gt;const&lt;/span&gt;* &lt;span style=&quot;color: #9cdcfe;&quot;&gt;alibi_slopes&lt;/span&gt;;&lt;/div&gt;&lt;div&gt;        &lt;span style=&quot;color: #4ec9b0;&quot;&gt;T&lt;/span&gt;* &lt;span style=&quot;color: #9cdcfe;&quot;&gt;context_buf&lt;/span&gt;;&lt;/div&gt;&lt;div&gt;        &lt;span style=&quot;color: #569cd6;&quot;&gt;void&lt;/span&gt;* &lt;span style=&quot;color: #9cdcfe;&quot;&gt;key_value_cache&lt;/span&gt;;&lt;/div&gt;&lt;div&gt;        &lt;span style=&quot;color: #569cd6;&quot;&gt;void&lt;/span&gt;* &lt;span style=&quot;color: #9cdcfe;&quot;&gt;block_pointers&lt;/span&gt;;&lt;/div&gt;&lt;div&gt;        &lt;span style=&quot;color: #4ec9b0;&quot;&gt;int32_t&lt;/span&gt; &lt;span style=&quot;color: #9cdcfe;&quot;&gt;max_seq_length&lt;/span&gt;;&lt;span style=&quot;color: #6a9955;&quot;&gt; // cache capacity&lt;/span&gt;&lt;/div&gt;&lt;div&gt;        &lt;span style=&quot;color: #4ec9b0;&quot;&gt;int32_t&lt;/span&gt; &lt;span style=&quot;color: #9cdcfe;&quot;&gt;num_requests&lt;/span&gt;;&lt;/div&gt;&lt;div&gt;        &lt;span style=&quot;color: #4ec9b0;&quot;&gt;int32_t&lt;/span&gt; &lt;span style=&quot;color: #9cdcfe;&quot;&gt;max_blocks_per_sequence&lt;/span&gt;;&lt;/div&gt;&lt;div&gt;        &lt;span style=&quot;color: #4ec9b0;&quot;&gt;int32_t&lt;/span&gt; &lt;span style=&quot;color: #569cd6;&quot;&gt;const&lt;/span&gt;* &lt;span style=&quot;color: #9cdcfe;&quot;&gt;cache_indir&lt;/span&gt;;&lt;/div&gt;&lt;div&gt;        &lt;span style=&quot;color: #569cd6;&quot;&gt;void&lt;/span&gt;* &lt;span style=&quot;color: #9cdcfe;&quot;&gt;workspace&lt;/span&gt;;&lt;/div&gt;&lt;div&gt;&lt;span style=&quot;color: #6a9955;&quot;&gt;        // optional when relative position&lt;/span&gt;&lt;/div&gt;&lt;div&gt;        &lt;span style=&quot;color: #569cd6;&quot;&gt;const&lt;/span&gt; &lt;span style=&quot;color: #4ec9b0;&quot;&gt;T&lt;/span&gt;* &lt;span style=&quot;color: #9cdcfe;&quot;&gt;relative_attention_bias&lt;/span&gt; = &lt;span style=&quot;color: #569cd6;&quot;&gt;nullptr&lt;/span&gt;;&lt;/div&gt;&lt;div&gt;        &lt;span style=&quot;color: #569cd6;&quot;&gt;int&lt;/span&gt; &lt;span style=&quot;color: #9cdcfe;&quot;&gt;relative_attention_bias_stride&lt;/span&gt; = &lt;span style=&quot;color: #b5cea8;&quot;&gt;0&lt;/span&gt;;&lt;/div&gt;&lt;div&gt;&lt;span style=&quot;color: #6a9955;&quot;&gt;        // optional when cross attention&lt;/span&gt;&lt;/div&gt;&lt;div&gt;        &lt;span style=&quot;color: #4ec9b0;&quot;&gt;int32_t&lt;/span&gt; &lt;span style=&quot;color: #569cd6;&quot;&gt;const&lt;/span&gt;* &lt;span style=&quot;color: #9cdcfe;&quot;&gt;encoder_input_lengths&lt;/span&gt; = &lt;span style=&quot;color: #569cd6;&quot;&gt;nullptr&lt;/span&gt;;&lt;/div&gt;&lt;div&gt;    };&lt;/div&gt;&lt;/div&gt;&lt;/div&gt;" style="whiteSpace=wrap;html=1;align=left;" vertex="1" parent="1">
          <mxGeometry x="1312" y="-1716" width="342" height="472" as="geometry" />
        </mxCell>
        <mxCell id="IReOFWMfToj0j515MoHR-24" value="&lt;div style=&quot;color: rgb(212, 212, 212); background-color: rgb(30, 30, 30); font-family: Menlo, Monaco, &amp;quot;Courier New&amp;quot;, monospace; line-height: 18px;&quot;&gt;&lt;div style=&quot;line-height: 18px;&quot;&gt;&lt;div&gt;template &amp;lt;&lt;span style=&quot;color: #569cd6;&quot;&gt;typename&lt;/span&gt; &lt;span style=&quot;color: #4ec9b0;&quot;&gt;T&lt;/span&gt;, &lt;span style=&quot;color: #569cd6;&quot;&gt;typename&lt;/span&gt; &lt;span style=&quot;color: #4ec9b0;&quot;&gt;KVCacheBuffer&lt;/span&gt;&amp;gt;&lt;/div&gt;&lt;div&gt;&lt;span style=&quot;color: #569cd6;&quot;&gt;int&lt;/span&gt; &lt;span style=&quot;color: #4ec9b0;&quot;&gt;GPTAttentionPluginCommon&lt;/span&gt;::&lt;span style=&quot;color: #dcdcaa;&quot;&gt;enqueueGeneration&lt;/span&gt;(&lt;/div&gt;&lt;div&gt;    &lt;span style=&quot;color: #569cd6;&quot;&gt;const&lt;/span&gt; &lt;span style=&quot;color: #4ec9b0;&quot;&gt;EnqueueGenerationParams&lt;/span&gt;&amp;lt;&lt;span style=&quot;color: #4ec9b0;&quot;&gt;T&lt;/span&gt;, &lt;span style=&quot;color: #4ec9b0;&quot;&gt;KVCacheBuffer&lt;/span&gt;&amp;gt;&lt;span style=&quot;color: #569cd6;&quot;&gt;&amp;amp;&lt;/span&gt; &lt;span style=&quot;color: #9cdcfe;&quot;&gt;params&lt;/span&gt;, &lt;span style=&quot;color: #4ec9b0;&quot;&gt;cudaStream_t&lt;/span&gt; &lt;span style=&quot;color: #9cdcfe;&quot;&gt;stream&lt;/span&gt;)&lt;/div&gt;&lt;/div&gt;&lt;/div&gt;" style="whiteSpace=wrap;html=1;" vertex="1" parent="1">
          <mxGeometry x="664" y="-1503" width="400" height="60" as="geometry" />
        </mxCell>
        <mxCell id="IReOFWMfToj0j515MoHR-27" value="&lt;div style=&quot;color: rgb(212, 212, 212); background-color: rgb(30, 30, 30); font-family: Menlo, Monaco, &amp;quot;Courier New&amp;quot;, monospace; line-height: 18px;&quot;&gt;&lt;div style=&quot;line-height: 18px;&quot;&gt;&lt;div style=&quot;line-height: 18px;&quot;&gt;&lt;div&gt;template &amp;lt;&lt;span style=&quot;color: #569cd6;&quot;&gt;typename&lt;/span&gt; &lt;span style=&quot;color: #4ec9b0;&quot;&gt;T&lt;/span&gt;, &lt;span style=&quot;color: #569cd6;&quot;&gt;typename&lt;/span&gt; &lt;span style=&quot;color: #4ec9b0;&quot;&gt;KVCacheBuffer&lt;/span&gt;&amp;gt;&lt;/div&gt;&lt;div&gt;&lt;span style=&quot;color: #569cd6;&quot;&gt;int&lt;/span&gt; &lt;span style=&quot;color: #4ec9b0;&quot;&gt;GPTAttentionPluginCommon&lt;/span&gt;::&lt;span style=&quot;color: #dcdcaa;&quot;&gt;enqueueContext&lt;/span&gt;(&lt;span style=&quot;color: #569cd6;&quot;&gt;const&lt;/span&gt; &lt;span style=&quot;color: #4ec9b0;&quot;&gt;EnqueueContextParams&lt;/span&gt;&amp;lt;&lt;span style=&quot;color: #4ec9b0;&quot;&gt;T&lt;/span&gt;, &lt;span style=&quot;color: #4ec9b0;&quot;&gt;KVCacheBuffer&lt;/span&gt;&amp;gt;&lt;span style=&quot;color: #569cd6;&quot;&gt;&amp;amp;&lt;/span&gt; &lt;span style=&quot;color: #9cdcfe;&quot;&gt;params&lt;/span&gt;, &lt;span style=&quot;color: #4ec9b0;&quot;&gt;cudaStream_t&lt;/span&gt; &lt;span style=&quot;color: #9cdcfe;&quot;&gt;stream&lt;/span&gt;)&lt;/div&gt;&lt;/div&gt;&lt;/div&gt;&lt;/div&gt;" style="whiteSpace=wrap;html=1;" vertex="1" parent="1">
          <mxGeometry x="214" y="-1503" width="400" height="60" as="geometry" />
        </mxCell>
        <mxCell id="IReOFWMfToj0j515MoHR-38" value="" style="group" vertex="1" connectable="0" parent="1">
          <mxGeometry x="1301.5" y="-2308" width="1030.5" height="916.5" as="geometry" />
        </mxCell>
        <mxCell id="IReOFWMfToj0j515MoHR-19" value="&lt;div style=&quot;color: rgb(212, 212, 212); background-color: rgb(30, 30, 30); font-family: Menlo, Monaco, &amp;quot;Courier New&amp;quot;, monospace; line-height: 18px;&quot;&gt;&lt;div style=&quot;line-height: 18px;&quot;&gt;&lt;div style=&quot;line-height: 18px;&quot;&gt;&lt;div&gt; template &amp;lt;&lt;span style=&quot;color: #569cd6;&quot;&gt;typename&lt;/span&gt; &lt;span style=&quot;color: #4ec9b0;&quot;&gt;T&lt;/span&gt;, &lt;span style=&quot;color: #569cd6;&quot;&gt;typename&lt;/span&gt; &lt;span style=&quot;color: #4ec9b0;&quot;&gt;KVCacheBuffer&lt;/span&gt;&amp;gt;&lt;/div&gt;&lt;div&gt;    &lt;span style=&quot;color: #569cd6;&quot;&gt;struct&lt;/span&gt; &lt;span style=&quot;color: #4ec9b0;&quot;&gt;EnqueueContextParams&lt;/span&gt;&lt;/div&gt;&lt;div&gt;    {&lt;/div&gt;&lt;div&gt;        &lt;span style=&quot;color: #4ec9b0;&quot;&gt;T&lt;/span&gt; &lt;span style=&quot;color: #569cd6;&quot;&gt;const&lt;/span&gt;* &lt;span style=&quot;color: #9cdcfe;&quot;&gt;attention_input&lt;/span&gt;;&lt;/div&gt;&lt;div&gt;        &lt;span style=&quot;color: #4ec9b0;&quot;&gt;T&lt;/span&gt; &lt;span style=&quot;color: #569cd6;&quot;&gt;const&lt;/span&gt;* &lt;span style=&quot;color: #9cdcfe;&quot;&gt;qkv_bias&lt;/span&gt;;&lt;/div&gt;&lt;div&gt;        &lt;span style=&quot;color: #4ec9b0;&quot;&gt;int32_t&lt;/span&gt; &lt;span style=&quot;color: #9cdcfe;&quot;&gt;input_seq_length&lt;/span&gt;;&lt;span style=&quot;color: #6a9955;&quot;&gt; // padded input length&lt;/span&gt;&lt;/div&gt;&lt;div&gt;        &lt;span style=&quot;color: #4ec9b0;&quot;&gt;int32_t&lt;/span&gt; &lt;span style=&quot;color: #9cdcfe;&quot;&gt;max_seq_length&lt;/span&gt;;&lt;span style=&quot;color: #6a9955;&quot;&gt;   // cache capacity&lt;/span&gt;&lt;/div&gt;&lt;div&gt;        &lt;span style=&quot;color: #4ec9b0;&quot;&gt;int32_t&lt;/span&gt; &lt;span style=&quot;color: #569cd6;&quot;&gt;const&lt;/span&gt;* &lt;span style=&quot;color: #9cdcfe;&quot;&gt;context_lengths&lt;/span&gt;;&lt;/div&gt;&lt;div&gt;        &lt;span style=&quot;color: #569cd6;&quot;&gt;float&lt;/span&gt; &lt;span style=&quot;color: #569cd6;&quot;&gt;const&lt;/span&gt;* &lt;span style=&quot;color: #9cdcfe;&quot;&gt;kv_scale_orig_quant&lt;/span&gt;;&lt;/div&gt;&lt;div&gt;        &lt;span style=&quot;color: #569cd6;&quot;&gt;float&lt;/span&gt; &lt;span style=&quot;color: #569cd6;&quot;&gt;const&lt;/span&gt;* &lt;span style=&quot;color: #9cdcfe;&quot;&gt;kv_scale_quant_orig&lt;/span&gt;;&lt;/div&gt;&lt;div&gt;        &lt;span style=&quot;color: #4ec9b0;&quot;&gt;T&lt;/span&gt; &lt;span style=&quot;color: #569cd6;&quot;&gt;const&lt;/span&gt;* &lt;span style=&quot;color: #9cdcfe;&quot;&gt;alibi_slopes&lt;/span&gt;;&lt;/div&gt;&lt;div&gt;        &lt;span style=&quot;color: #4ec9b0;&quot;&gt;T&lt;/span&gt;* &lt;span style=&quot;color: #9cdcfe;&quot;&gt;context_buf&lt;/span&gt;;&lt;/div&gt;&lt;div&gt;        &lt;span style=&quot;color: #569cd6;&quot;&gt;void&lt;/span&gt;* &lt;span style=&quot;color: #9cdcfe;&quot;&gt;key_value_cache&lt;/span&gt;;&lt;/div&gt;&lt;div&gt;        &lt;span style=&quot;color: #569cd6;&quot;&gt;void&lt;/span&gt;* &lt;span style=&quot;color: #9cdcfe;&quot;&gt;block_pointers&lt;/span&gt;;&lt;/div&gt;&lt;div&gt;        &lt;span style=&quot;color: #4ec9b0;&quot;&gt;int32_t&lt;/span&gt; &lt;span style=&quot;color: #9cdcfe;&quot;&gt;batch_size&lt;/span&gt;;&lt;/div&gt;&lt;div&gt;        &lt;span style=&quot;color: #4ec9b0;&quot;&gt;int32_t&lt;/span&gt; &lt;span style=&quot;color: #9cdcfe;&quot;&gt;num_tokens&lt;/span&gt;;&lt;/div&gt;&lt;div&gt;        &lt;span style=&quot;color: #4ec9b0;&quot;&gt;int32_t&lt;/span&gt; &lt;span style=&quot;color: #9cdcfe;&quot;&gt;max_blocks_per_sequence&lt;/span&gt;;&lt;/div&gt;&lt;div&gt;        &lt;span style=&quot;color: #569cd6;&quot;&gt;void&lt;/span&gt;* &lt;span style=&quot;color: #9cdcfe;&quot;&gt;workspace&lt;/span&gt;;&lt;/div&gt;&lt;div&gt;&lt;span style=&quot;color: #6a9955;&quot;&gt;        // optional when relative position&lt;/span&gt;&lt;/div&gt;&lt;div&gt;        &lt;span style=&quot;color: #569cd6;&quot;&gt;const&lt;/span&gt; &lt;span style=&quot;color: #4ec9b0;&quot;&gt;T&lt;/span&gt;* &lt;span style=&quot;color: #9cdcfe;&quot;&gt;relative_attention_bias&lt;/span&gt; = &lt;span style=&quot;color: #569cd6;&quot;&gt;nullptr&lt;/span&gt;;&lt;/div&gt;&lt;div&gt;        &lt;span style=&quot;color: #569cd6;&quot;&gt;int&lt;/span&gt; &lt;span style=&quot;color: #9cdcfe;&quot;&gt;relative_attention_bias_stride&lt;/span&gt; = &lt;span style=&quot;color: #b5cea8;&quot;&gt;0&lt;/span&gt;;&lt;/div&gt;&lt;div&gt;&lt;span style=&quot;color: #6a9955;&quot;&gt;        // optional when cross attention&lt;/span&gt;&lt;/div&gt;&lt;div&gt;        &lt;span style=&quot;color: #4ec9b0;&quot;&gt;T&lt;/span&gt; &lt;span style=&quot;color: #569cd6;&quot;&gt;const&lt;/span&gt;* &lt;span style=&quot;color: #9cdcfe;&quot;&gt;cross_qkv&lt;/span&gt; = &lt;span style=&quot;color: #569cd6;&quot;&gt;nullptr&lt;/span&gt;;&lt;/div&gt;&lt;div&gt;        &lt;span style=&quot;color: #4ec9b0;&quot;&gt;int32_t&lt;/span&gt; &lt;span style=&quot;color: #9cdcfe;&quot;&gt;cross_qkv_length&lt;/span&gt; = &lt;span style=&quot;color: #b5cea8;&quot;&gt;0&lt;/span&gt;;&lt;/div&gt;&lt;div&gt;        &lt;span style=&quot;color: #4ec9b0;&quot;&gt;int32_t&lt;/span&gt; &lt;span style=&quot;color: #569cd6;&quot;&gt;const&lt;/span&gt;* &lt;span style=&quot;color: #9cdcfe;&quot;&gt;encoder_input_lengths&lt;/span&gt; = &lt;span style=&quot;color: #569cd6;&quot;&gt;nullptr&lt;/span&gt;;&lt;/div&gt;&lt;div&gt;        &lt;span style=&quot;color: #4ec9b0;&quot;&gt;int32_t&lt;/span&gt; &lt;span style=&quot;color: #9cdcfe;&quot;&gt;num_encoder_tokens&lt;/span&gt; = &lt;span style=&quot;color: #b5cea8;&quot;&gt;0&lt;/span&gt;;&lt;/div&gt;&lt;div&gt;    };&lt;/div&gt;&lt;/div&gt;&lt;/div&gt;&lt;/div&gt;" style="whiteSpace=wrap;html=1;align=left;" vertex="1" parent="IReOFWMfToj0j515MoHR-38">
          <mxGeometry y="45" width="363" height="500" as="geometry" />
        </mxCell>
        <mxCell id="IReOFWMfToj0j515MoHR-33" value="context阶段需要的参数" style="text;html=1;align=center;verticalAlign=middle;resizable=0;points=[];autosize=1;strokeColor=none;fillColor=none;" vertex="1" parent="IReOFWMfToj0j515MoHR-38">
          <mxGeometry x="33.5" width="150" height="30" as="geometry" />
        </mxCell>
        <mxCell id="IReOFWMfToj0j515MoHR-34" value="" style="group" vertex="1" connectable="0" parent="IReOFWMfToj0j515MoHR-38">
          <mxGeometry x="390.5" y="170.5" width="640" height="746" as="geometry" />
        </mxCell>
        <mxCell id="IReOFWMfToj0j515MoHR-31" value="&lt;div style=&quot;color: rgb(212, 212, 212); background-color: rgb(30, 30, 30); font-family: Menlo, Monaco, &amp;quot;Courier New&amp;quot;, monospace; line-height: 18px;&quot;&gt;&lt;div&gt;const &lt;span style=&quot;color: #4ec9b0;&quot;&gt;std&lt;/span&gt;::&lt;span style=&quot;color: #4ec9b0;&quot;&gt;string&lt;/span&gt; &lt;span style=&quot;color: #9cdcfe;&quot;&gt;mLayerName&lt;/span&gt;;&lt;/div&gt;&lt;br&gt;&lt;div&gt;    &lt;span style=&quot;color: #569cd6;&quot;&gt;int&lt;/span&gt; &lt;span style=&quot;color: #9cdcfe;&quot;&gt;mNumHeads&lt;/span&gt;;&lt;/div&gt;&lt;div&gt;    &lt;span style=&quot;color: #569cd6;&quot;&gt;int&lt;/span&gt; &lt;span style=&quot;color: #9cdcfe;&quot;&gt;mNumKVHeads&lt;/span&gt;;&lt;/div&gt;&lt;div&gt;    &lt;span style=&quot;color: #569cd6;&quot;&gt;int&lt;/span&gt; &lt;span style=&quot;color: #9cdcfe;&quot;&gt;mHeadSize&lt;/span&gt;;&lt;/div&gt;&lt;div&gt;    &lt;span style=&quot;color: #569cd6;&quot;&gt;int&lt;/span&gt; &lt;span style=&quot;color: #9cdcfe;&quot;&gt;mUnidirectional&lt;/span&gt;;&lt;/div&gt;&lt;div&gt;    &lt;span style=&quot;color: #569cd6;&quot;&gt;float&lt;/span&gt; &lt;span style=&quot;color: #9cdcfe;&quot;&gt;mQScaling&lt;/span&gt;;&lt;/div&gt;&lt;div&gt;    &lt;span style=&quot;color: #569cd6;&quot;&gt;int&lt;/span&gt; &lt;span style=&quot;color: #9cdcfe;&quot;&gt;mRotaryEmbeddingDim&lt;/span&gt;;&lt;/div&gt;&lt;div&gt;    &lt;span style=&quot;color: #569cd6;&quot;&gt;float&lt;/span&gt; &lt;span style=&quot;color: #9cdcfe;&quot;&gt;mRotaryEmbeddingBase&lt;/span&gt;;&lt;/div&gt;&lt;div&gt;    &lt;span style=&quot;color: #4ec9b0;&quot;&gt;tensorrt_llm&lt;/span&gt;::&lt;span style=&quot;color: #4ec9b0;&quot;&gt;kernels&lt;/span&gt;::&lt;span style=&quot;color: #4ec9b0;&quot;&gt;RotaryScalingType&lt;/span&gt; &lt;span style=&quot;color: #9cdcfe;&quot;&gt;mRotaryEmbeddingScaleType&lt;/span&gt;;&lt;/div&gt;&lt;div&gt;    &lt;span style=&quot;color: #569cd6;&quot;&gt;float&lt;/span&gt; &lt;span style=&quot;color: #9cdcfe;&quot;&gt;mRotaryEmbeddingScale&lt;/span&gt;;&lt;/div&gt;&lt;div&gt;    &lt;span style=&quot;color: #569cd6;&quot;&gt;int&lt;/span&gt; &lt;span style=&quot;color: #9cdcfe;&quot;&gt;mRotaryEmbeddingMaxPositions&lt;/span&gt;;&lt;/div&gt;&lt;div&gt;    &lt;span style=&quot;color: #4ec9b0;&quot;&gt;tensorrt_llm&lt;/span&gt;::&lt;span style=&quot;color: #4ec9b0;&quot;&gt;kernels&lt;/span&gt;::&lt;span style=&quot;color: #4ec9b0;&quot;&gt;PositionEmbeddingType&lt;/span&gt; &lt;span style=&quot;color: #9cdcfe;&quot;&gt;mPositionEmbeddingType&lt;/span&gt;;&lt;/div&gt;&lt;div&gt;    &lt;span style=&quot;color: #569cd6;&quot;&gt;bool&lt;/span&gt; &lt;span style=&quot;color: #9cdcfe;&quot;&gt;mRemovePadding&lt;/span&gt; = &lt;span style=&quot;color: #569cd6;&quot;&gt;false&lt;/span&gt;;&lt;/div&gt;&lt;div&gt;    &lt;span style=&quot;color: #4ec9b0;&quot;&gt;tensorrt_llm&lt;/span&gt;::&lt;span style=&quot;color: #4ec9b0;&quot;&gt;kernels&lt;/span&gt;::&lt;span style=&quot;color: #4ec9b0;&quot;&gt;AttentionMaskType&lt;/span&gt; &lt;span style=&quot;color: #9cdcfe;&quot;&gt;mMaskType&lt;/span&gt;;&lt;/div&gt;&lt;div&gt;    &lt;span style=&quot;color: #569cd6;&quot;&gt;bool&lt;/span&gt; &lt;span style=&quot;color: #9cdcfe;&quot;&gt;mPagedKVCache&lt;/span&gt; = &lt;span style=&quot;color: #569cd6;&quot;&gt;false&lt;/span&gt;;&lt;/div&gt;&lt;div&gt;    &lt;span style=&quot;color: #569cd6;&quot;&gt;int&lt;/span&gt; &lt;span style=&quot;color: #9cdcfe;&quot;&gt;mTokensPerBlock&lt;/span&gt;;&lt;/div&gt;&lt;div&gt;    &lt;span style=&quot;color: #4ec9b0;&quot;&gt;tensorrt_llm&lt;/span&gt;::&lt;span style=&quot;color: #4ec9b0;&quot;&gt;common&lt;/span&gt;::&lt;span style=&quot;color: #4ec9b0;&quot;&gt;QuantMode&lt;/span&gt; &lt;span style=&quot;color: #9cdcfe;&quot;&gt;mKVCacheQuantMode&lt;/span&gt;;&lt;/div&gt;&lt;div&gt;    &lt;span style=&quot;color: #569cd6;&quot;&gt;int&lt;/span&gt; &lt;span style=&quot;color: #9cdcfe;&quot;&gt;mTpSize&lt;/span&gt; = &lt;span style=&quot;color: #b5cea8;&quot;&gt;1&lt;/span&gt;;&lt;/div&gt;&lt;div&gt;    &lt;span style=&quot;color: #569cd6;&quot;&gt;int&lt;/span&gt; &lt;span style=&quot;color: #9cdcfe;&quot;&gt;mTpRank&lt;/span&gt; = &lt;span style=&quot;color: #b5cea8;&quot;&gt;0&lt;/span&gt;;&lt;/div&gt;&lt;div&gt;    &lt;span style=&quot;color: #9cdcfe;&quot;&gt;nvinfer1&lt;/span&gt;::DataType mType;&lt;/div&gt;&lt;div&gt;    &lt;span style=&quot;color: #4ec9b0;&quot;&gt;int32_t&lt;/span&gt; &lt;span style=&quot;color: #9cdcfe;&quot;&gt;mMaxContextLength&lt;/span&gt;;&lt;/div&gt;&lt;div&gt;    &lt;span style=&quot;color: #569cd6;&quot;&gt;bool&lt;/span&gt; &lt;span style=&quot;color: #9cdcfe;&quot;&gt;mQKVBiasEnabled&lt;/span&gt;;&lt;/div&gt;&lt;div&gt;    &lt;span style=&quot;color: #569cd6;&quot;&gt;bool&lt;/span&gt; &lt;span style=&quot;color: #9cdcfe;&quot;&gt;mCrossAttention&lt;/span&gt; = &lt;span style=&quot;color: #569cd6;&quot;&gt;false&lt;/span&gt;;&lt;/div&gt;&lt;div&gt;    &lt;span style=&quot;color: #569cd6;&quot;&gt;int&lt;/span&gt; &lt;span style=&quot;color: #9cdcfe;&quot;&gt;mMaxDistance&lt;/span&gt; = &lt;span style=&quot;color: #b5cea8;&quot;&gt;0&lt;/span&gt;;&lt;/div&gt;&lt;br&gt;&lt;div&gt;&lt;span style=&quot;color: #6a9955;&quot;&gt;    // fmha runner (disable by default)&lt;/span&gt;&lt;/div&gt;&lt;div&gt;&lt;span style=&quot;color: #6a9955;&quot;&gt;    // flag: disabled = 0, enabled = 1, enabled with fp32 accumulation = 2&lt;/span&gt;&lt;/div&gt;&lt;div&gt;    &lt;span style=&quot;color: #569cd6;&quot;&gt;bool&lt;/span&gt; &lt;span style=&quot;color: #9cdcfe;&quot;&gt;mEnableContextFMHA&lt;/span&gt; = &lt;span style=&quot;color: #569cd6;&quot;&gt;false&lt;/span&gt;;&lt;/div&gt;&lt;div&gt;    &lt;span style=&quot;color: #569cd6;&quot;&gt;bool&lt;/span&gt; &lt;span style=&quot;color: #9cdcfe;&quot;&gt;mFMHAForceFP32Acc&lt;/span&gt; = &lt;span style=&quot;color: #569cd6;&quot;&gt;false&lt;/span&gt;;&lt;/div&gt;&lt;div&gt;    &lt;span style=&quot;color: #569cd6;&quot;&gt;int&lt;/span&gt; &lt;span style=&quot;color: #9cdcfe;&quot;&gt;mSM&lt;/span&gt; = &lt;span style=&quot;color: #4ec9b0;&quot;&gt;tensorrt_llm&lt;/span&gt;::&lt;span style=&quot;color: #4ec9b0;&quot;&gt;common&lt;/span&gt;::&lt;span style=&quot;color: #dcdcaa;&quot;&gt;getSMVersion&lt;/span&gt;();&lt;/div&gt;&lt;div&gt;    &lt;span style=&quot;color: #569cd6;&quot;&gt;int&lt;/span&gt; &lt;span style=&quot;color: #9cdcfe;&quot;&gt;mMultiProcessorCount&lt;/span&gt; = &lt;span style=&quot;color: #4ec9b0;&quot;&gt;tensorrt_llm&lt;/span&gt;::&lt;span style=&quot;color: #4ec9b0;&quot;&gt;common&lt;/span&gt;::&lt;span style=&quot;color: #dcdcaa;&quot;&gt;getMultiProcessorCount&lt;/span&gt;();&lt;/div&gt;&lt;div&gt;&lt;span style=&quot;color: #6a9955;&quot;&gt;    // The default copy constructor will leave it as nullptr. clone() shall initialize it.&lt;/span&gt;&lt;/div&gt;&lt;div&gt;    &lt;span style=&quot;color: #4ec9b0;&quot;&gt;UniqPtrWNullCopy&lt;/span&gt;&amp;lt;&lt;span style=&quot;color: #4ec9b0;&quot;&gt;tensorrt_llm&lt;/span&gt;::&lt;span style=&quot;color: #4ec9b0;&quot;&gt;kernels&lt;/span&gt;::&lt;span style=&quot;color: #4ec9b0;&quot;&gt;MHARunner&lt;/span&gt;&amp;gt; &lt;span style=&quot;color: #9cdcfe;&quot;&gt;mFMHARunner&lt;/span&gt;;&lt;/div&gt;&lt;br&gt;&lt;div&gt;    &lt;span style=&quot;color: #569cd6;&quot;&gt;bool&lt;/span&gt; &lt;span style=&quot;color: #9cdcfe;&quot;&gt;mMultiBlockMode&lt;/span&gt;;&lt;/div&gt;&lt;div&gt;    &lt;span style=&quot;color: #569cd6;&quot;&gt;int&lt;/span&gt; &lt;span style=&quot;color: #9cdcfe;&quot;&gt;mDeviceId&lt;/span&gt; = -&lt;span style=&quot;color: #b5cea8;&quot;&gt;1&lt;/span&gt;;&lt;/div&gt;&lt;div&gt;&lt;span style=&quot;color: #6a9955;&quot;&gt;    // The default copy constructor will leave it as nullptr. clone() shall initialize it.&lt;/span&gt;&lt;/div&gt;&lt;div&gt;    &lt;span style=&quot;color: #4ec9b0;&quot;&gt;UniqPtrWNullCopy&lt;/span&gt;&amp;lt;&lt;span style=&quot;color: #4ec9b0;&quot;&gt;tensorrt_llm&lt;/span&gt;::&lt;span style=&quot;color: #4ec9b0;&quot;&gt;common&lt;/span&gt;::CublasMMWrapper&amp;gt; &lt;span style=&quot;color: #9cdcfe;&quot;&gt;mCublasWrapper&lt;/span&gt;;&lt;/div&gt;&lt;/div&gt;" style="text;html=1;align=left;verticalAlign=middle;resizable=1;points=[];autosize=1;strokeColor=none;fillColor=none;movable=1;rotatable=1;deletable=1;editable=1;locked=0;connectable=1;" vertex="1" parent="IReOFWMfToj0j515MoHR-34">
          <mxGeometry y="26" width="640" height="720" as="geometry" />
        </mxCell>
        <mxCell id="IReOFWMfToj0j515MoHR-32" value="Attention plugin需要的超参" style="text;html=1;align=center;verticalAlign=middle;resizable=0;points=[];autosize=1;strokeColor=none;fillColor=none;" vertex="1" parent="IReOFWMfToj0j515MoHR-34">
          <mxGeometry x="128" width="170" height="30" as="geometry" />
        </mxCell>
        <mxCell id="IReOFWMfToj0j515MoHR-37" value="&lt;span style=&quot;color: rgb(0, 0, 0); font-family: Helvetica; font-size: 12px; font-style: normal; font-variant-ligatures: normal; font-variant-caps: normal; font-weight: 400; letter-spacing: normal; orphans: 2; text-align: center; text-indent: 0px; text-transform: none; widows: 2; word-spacing: 0px; -webkit-text-stroke-width: 0px; background-color: rgb(251, 251, 251); text-decoration-thickness: initial; text-decoration-style: initial; text-decoration-color: initial; float: none; display: inline !important;&quot;&gt;generate阶段需要的参数&lt;/span&gt;" style="text;whiteSpace=wrap;html=1;" vertex="1" parent="IReOFWMfToj0j515MoHR-38">
          <mxGeometry x="67.5" y="562" width="160" height="40" as="geometry" />
        </mxCell>
      </root>
    </mxGraphModel>
  </diagram>
</mxfile>
